<mxfile host="app.diagrams.net" modified="2021-05-21T19:46:46.755Z" agent="5.0 (Windows NT 10.0; Win64; x64) AppleWebKit/537.36 (KHTML, like Gecko) Chrome/92.0.4515.0 Safari/537.36" etag="DV319Th9zrkRlJzMHjR-" version="14.6.13" type="github">
  <diagram id="Ul5Ot3bxFoBOUtaAG98L" name="Page-1">
    <mxGraphModel dx="1872" dy="836" grid="1" gridSize="10" guides="1" tooltips="1" connect="1" arrows="1" fold="1" page="1" pageScale="1" pageWidth="827" pageHeight="1169" math="0" shadow="0">
      <root>
        <mxCell id="0" />
        <mxCell id="1" parent="0" />
        <mxCell id="HW89lJfSW6W3XiBtcc8C-1" value="Fluxograma de Helpdesk Space-Invaders-Bullet-Hell&amp;nbsp;" style="swimlane;html=1;childLayout=stackLayout;resizeParent=1;resizeParentMax=0;horizontal=1;startSize=20;horizontalStack=0;" parent="1" vertex="1">
          <mxGeometry x="140" y="20" width="1460" height="1750" as="geometry" />
        </mxCell>
        <mxCell id="H0gLCjWkoF_0PNR6tfpx-77" style="edgeStyle=orthogonalEdgeStyle;rounded=0;orthogonalLoop=1;jettySize=auto;html=1;entryX=0.5;entryY=0;entryDx=0;entryDy=0;" edge="1" parent="HW89lJfSW6W3XiBtcc8C-1" source="H0gLCjWkoF_0PNR6tfpx-32" target="H0gLCjWkoF_0PNR6tfpx-42">
          <mxGeometry relative="1" as="geometry" />
        </mxCell>
        <mxCell id="H0gLCjWkoF_0PNR6tfpx-41" value="" style="edgeStyle=orthogonalEdgeStyle;rounded=0;orthogonalLoop=1;jettySize=auto;html=1;" edge="1" parent="HW89lJfSW6W3XiBtcc8C-1" source="H0gLCjWkoF_0PNR6tfpx-30" target="H0gLCjWkoF_0PNR6tfpx-40">
          <mxGeometry relative="1" as="geometry" />
        </mxCell>
        <mxCell id="H0gLCjWkoF_0PNR6tfpx-97" style="edgeStyle=orthogonalEdgeStyle;rounded=0;orthogonalLoop=1;jettySize=auto;html=1;entryX=0.5;entryY=0;entryDx=0;entryDy=0;" edge="1" parent="HW89lJfSW6W3XiBtcc8C-1" source="H0gLCjWkoF_0PNR6tfpx-94" target="H0gLCjWkoF_0PNR6tfpx-98">
          <mxGeometry relative="1" as="geometry">
            <mxPoint x="132.5" y="1180" as="targetPoint" />
          </mxGeometry>
        </mxCell>
        <mxCell id="HW89lJfSW6W3XiBtcc8C-2" value="Usuário" style="swimlane;html=1;startSize=20;horizontal=0;" parent="HW89lJfSW6W3XiBtcc8C-1" vertex="1">
          <mxGeometry y="20" width="1460" height="440" as="geometry">
            <mxRectangle y="20" width="860" height="20" as="alternateBounds" />
          </mxGeometry>
        </mxCell>
        <mxCell id="H0gLCjWkoF_0PNR6tfpx-22" value="&lt;b&gt;Não&lt;/b&gt;" style="text;html=1;strokeColor=none;fillColor=none;align=center;verticalAlign=middle;whiteSpace=wrap;rounded=0;" vertex="1" parent="HW89lJfSW6W3XiBtcc8C-2">
          <mxGeometry x="192.5" y="90" width="40" height="20" as="geometry" />
        </mxCell>
        <mxCell id="H0gLCjWkoF_0PNR6tfpx-26" value="&lt;b&gt;Sim&lt;/b&gt;" style="text;html=1;strokeColor=none;fillColor=none;align=center;verticalAlign=middle;whiteSpace=wrap;rounded=0;" vertex="1" parent="HW89lJfSW6W3XiBtcc8C-2">
          <mxGeometry x="130" y="150" width="40" height="20" as="geometry" />
        </mxCell>
        <mxCell id="H0gLCjWkoF_0PNR6tfpx-31" style="edgeStyle=orthogonalEdgeStyle;rounded=0;orthogonalLoop=1;jettySize=auto;html=1;entryX=0.5;entryY=0;entryDx=0;entryDy=0;" edge="1" parent="HW89lJfSW6W3XiBtcc8C-2" source="H0gLCjWkoF_0PNR6tfpx-28" target="H0gLCjWkoF_0PNR6tfpx-30">
          <mxGeometry relative="1" as="geometry" />
        </mxCell>
        <mxCell id="H0gLCjWkoF_0PNR6tfpx-100" style="edgeStyle=orthogonalEdgeStyle;rounded=0;orthogonalLoop=1;jettySize=auto;html=1;entryX=0;entryY=0.5;entryDx=0;entryDy=0;" edge="1" parent="HW89lJfSW6W3XiBtcc8C-2" source="H0gLCjWkoF_0PNR6tfpx-28" target="H0gLCjWkoF_0PNR6tfpx-99">
          <mxGeometry relative="1" as="geometry" />
        </mxCell>
        <mxCell id="H0gLCjWkoF_0PNR6tfpx-28" value="Aconteceu um Problema?" style="rhombus;whiteSpace=wrap;html=1;" vertex="1" parent="HW89lJfSW6W3XiBtcc8C-2">
          <mxGeometry x="67.5" y="83.75" width="130" height="70" as="geometry" />
        </mxCell>
        <mxCell id="H0gLCjWkoF_0PNR6tfpx-33" style="edgeStyle=orthogonalEdgeStyle;rounded=0;orthogonalLoop=1;jettySize=auto;html=1;entryX=0.5;entryY=0;entryDx=0;entryDy=0;" edge="1" parent="HW89lJfSW6W3XiBtcc8C-2" source="H0gLCjWkoF_0PNR6tfpx-30" target="H0gLCjWkoF_0PNR6tfpx-32">
          <mxGeometry relative="1" as="geometry" />
        </mxCell>
        <mxCell id="H0gLCjWkoF_0PNR6tfpx-30" value="É um Incidente?" style="rhombus;whiteSpace=wrap;html=1;" vertex="1" parent="HW89lJfSW6W3XiBtcc8C-2">
          <mxGeometry x="67.5" y="190" width="130" height="70" as="geometry" />
        </mxCell>
        <mxCell id="H0gLCjWkoF_0PNR6tfpx-32" value="É uma Requisição?" style="rhombus;whiteSpace=wrap;html=1;" vertex="1" parent="HW89lJfSW6W3XiBtcc8C-2">
          <mxGeometry x="67.5" y="320" width="130" height="70" as="geometry" />
        </mxCell>
        <mxCell id="H0gLCjWkoF_0PNR6tfpx-44" value="&lt;b&gt;Sim&lt;/b&gt;" style="text;html=1;strokeColor=none;fillColor=none;align=center;verticalAlign=middle;whiteSpace=wrap;rounded=0;" vertex="1" parent="HW89lJfSW6W3XiBtcc8C-2">
          <mxGeometry x="192.5" y="200" width="40" height="20" as="geometry" />
        </mxCell>
        <mxCell id="H0gLCjWkoF_0PNR6tfpx-60" value="&lt;b&gt;Sim&lt;/b&gt;" style="text;html=1;strokeColor=none;fillColor=none;align=center;verticalAlign=middle;whiteSpace=wrap;rounded=0;" vertex="1" parent="HW89lJfSW6W3XiBtcc8C-2">
          <mxGeometry x="130" y="390" width="40" height="20" as="geometry" />
        </mxCell>
        <mxCell id="H0gLCjWkoF_0PNR6tfpx-61" value="&lt;b&gt;Não&lt;/b&gt;" style="text;html=1;strokeColor=none;fillColor=none;align=center;verticalAlign=middle;whiteSpace=wrap;rounded=0;" vertex="1" parent="HW89lJfSW6W3XiBtcc8C-2">
          <mxGeometry x="130" y="260" width="40" height="20" as="geometry" />
        </mxCell>
        <mxCell id="H0gLCjWkoF_0PNR6tfpx-183" style="edgeStyle=orthogonalEdgeStyle;rounded=0;orthogonalLoop=1;jettySize=auto;html=1;entryX=0.5;entryY=1;entryDx=0;entryDy=0;" edge="1" parent="HW89lJfSW6W3XiBtcc8C-2" source="H0gLCjWkoF_0PNR6tfpx-99" target="H0gLCjWkoF_0PNR6tfpx-107">
          <mxGeometry relative="1" as="geometry" />
        </mxCell>
        <mxCell id="H0gLCjWkoF_0PNR6tfpx-99" value="Contatar o Usuario sobre a Resolução" style="shape=process;whiteSpace=wrap;html=1;backgroundOutline=1;" vertex="1" parent="HW89lJfSW6W3XiBtcc8C-2">
          <mxGeometry x="970" y="88.75" width="120" height="60" as="geometry" />
        </mxCell>
        <mxCell id="H0gLCjWkoF_0PNR6tfpx-106" style="edgeStyle=orthogonalEdgeStyle;rounded=0;orthogonalLoop=1;jettySize=auto;html=1;entryX=0.5;entryY=0;entryDx=0;entryDy=0;" edge="1" parent="HW89lJfSW6W3XiBtcc8C-2" source="H0gLCjWkoF_0PNR6tfpx-105" target="H0gLCjWkoF_0PNR6tfpx-28">
          <mxGeometry relative="1" as="geometry" />
        </mxCell>
        <mxCell id="H0gLCjWkoF_0PNR6tfpx-105" value="" style="ellipse;whiteSpace=wrap;html=1;aspect=fixed;fillColor=#d5e8d4;strokeColor=#82b366;" vertex="1" parent="HW89lJfSW6W3XiBtcc8C-2">
          <mxGeometry x="112.5" y="10" width="40" height="40" as="geometry" />
        </mxCell>
        <mxCell id="H0gLCjWkoF_0PNR6tfpx-107" value="" style="ellipse;whiteSpace=wrap;html=1;aspect=fixed;fillColor=#f8cecc;strokeColor=#b85450;" vertex="1" parent="HW89lJfSW6W3XiBtcc8C-2">
          <mxGeometry x="1010" y="10" width="40" height="40" as="geometry" />
        </mxCell>
        <mxCell id="HW89lJfSW6W3XiBtcc8C-3" value="Central de Atendimento / Suporte Nivel 1" style="swimlane;html=1;startSize=20;horizontal=0;" parent="HW89lJfSW6W3XiBtcc8C-1" vertex="1">
          <mxGeometry y="460" width="1460" height="640" as="geometry">
            <mxRectangle y="460" width="1460" height="20" as="alternateBounds" />
          </mxGeometry>
        </mxCell>
        <mxCell id="H0gLCjWkoF_0PNR6tfpx-87" style="edgeStyle=orthogonalEdgeStyle;rounded=0;orthogonalLoop=1;jettySize=auto;html=1;entryX=0.5;entryY=0;entryDx=0;entryDy=0;" edge="1" parent="HW89lJfSW6W3XiBtcc8C-3" source="H0gLCjWkoF_0PNR6tfpx-65" target="H0gLCjWkoF_0PNR6tfpx-86">
          <mxGeometry relative="1" as="geometry" />
        </mxCell>
        <mxCell id="H0gLCjWkoF_0PNR6tfpx-65" value="Conseguiu Identificar?" style="rhombus;whiteSpace=wrap;html=1;" vertex="1" parent="HW89lJfSW6W3XiBtcc8C-3">
          <mxGeometry x="395" y="232.5" width="130" height="70" as="geometry" />
        </mxCell>
        <mxCell id="H0gLCjWkoF_0PNR6tfpx-42" value="Categorizar o Problema&lt;br&gt;" style="whiteSpace=wrap;html=1;" vertex="1" parent="HW89lJfSW6W3XiBtcc8C-3">
          <mxGeometry x="72.5" y="140" width="120" height="60" as="geometry" />
        </mxCell>
        <mxCell id="H0gLCjWkoF_0PNR6tfpx-79" style="edgeStyle=orthogonalEdgeStyle;rounded=0;orthogonalLoop=1;jettySize=auto;html=1;entryX=0.5;entryY=0;entryDx=0;entryDy=0;" edge="1" parent="HW89lJfSW6W3XiBtcc8C-3" source="H0gLCjWkoF_0PNR6tfpx-40" target="H0gLCjWkoF_0PNR6tfpx-65">
          <mxGeometry relative="1" as="geometry" />
        </mxCell>
        <mxCell id="H0gLCjWkoF_0PNR6tfpx-40" value="Diagnostico/Identificação do Problema&lt;br&gt;" style="whiteSpace=wrap;html=1;" vertex="1" parent="HW89lJfSW6W3XiBtcc8C-3">
          <mxGeometry x="390" y="70" width="140" height="53.75" as="geometry" />
        </mxCell>
        <mxCell id="H0gLCjWkoF_0PNR6tfpx-83" style="edgeStyle=orthogonalEdgeStyle;rounded=0;orthogonalLoop=1;jettySize=auto;html=1;entryX=0.5;entryY=1;entryDx=0;entryDy=0;" edge="1" parent="HW89lJfSW6W3XiBtcc8C-3" source="H0gLCjWkoF_0PNR6tfpx-73" target="H0gLCjWkoF_0PNR6tfpx-81">
          <mxGeometry relative="1" as="geometry" />
        </mxCell>
        <mxCell id="H0gLCjWkoF_0PNR6tfpx-263" style="edgeStyle=orthogonalEdgeStyle;rounded=0;orthogonalLoop=1;jettySize=auto;html=1;entryX=1;entryY=0.5;entryDx=0;entryDy=0;" edge="1" parent="HW89lJfSW6W3XiBtcc8C-3" source="H0gLCjWkoF_0PNR6tfpx-73" target="H0gLCjWkoF_0PNR6tfpx-86">
          <mxGeometry relative="1" as="geometry">
            <Array as="points">
              <mxPoint x="1030" y="400" />
            </Array>
          </mxGeometry>
        </mxCell>
        <mxCell id="H0gLCjWkoF_0PNR6tfpx-73" value="Existe uma &lt;br&gt;Resolução dentro da&lt;br&gt;Base de &lt;br&gt;Conhecimento?" style="rhombus;whiteSpace=wrap;html=1;" vertex="1" parent="HW89lJfSW6W3XiBtcc8C-3">
          <mxGeometry x="945.3199999999999" y="223.75" width="169.37" height="87.5" as="geometry" />
        </mxCell>
        <mxCell id="H0gLCjWkoF_0PNR6tfpx-80" style="edgeStyle=orthogonalEdgeStyle;rounded=0;orthogonalLoop=1;jettySize=auto;html=1;entryX=0;entryY=0.5;entryDx=0;entryDy=0;" edge="1" parent="HW89lJfSW6W3XiBtcc8C-3" source="H0gLCjWkoF_0PNR6tfpx-71" target="H0gLCjWkoF_0PNR6tfpx-73">
          <mxGeometry relative="1" as="geometry" />
        </mxCell>
        <mxCell id="H0gLCjWkoF_0PNR6tfpx-71" value="Conferir Base de Conhecimento" style="shape=process;whiteSpace=wrap;html=1;backgroundOutline=1;" vertex="1" parent="HW89lJfSW6W3XiBtcc8C-3">
          <mxGeometry x="655" y="237.5" width="120" height="60" as="geometry" />
        </mxCell>
        <mxCell id="H0gLCjWkoF_0PNR6tfpx-68" style="edgeStyle=orthogonalEdgeStyle;rounded=0;orthogonalLoop=1;jettySize=auto;html=1;entryX=0;entryY=0.5;entryDx=0;entryDy=0;" edge="1" parent="HW89lJfSW6W3XiBtcc8C-3" source="H0gLCjWkoF_0PNR6tfpx-65" target="H0gLCjWkoF_0PNR6tfpx-71">
          <mxGeometry relative="1" as="geometry">
            <mxPoint x="690" y="-235" as="targetPoint" />
          </mxGeometry>
        </mxCell>
        <mxCell id="H0gLCjWkoF_0PNR6tfpx-75" value="&lt;b&gt;Sim&lt;/b&gt;" style="text;html=1;strokeColor=none;fillColor=none;align=center;verticalAlign=middle;whiteSpace=wrap;rounded=0;" vertex="1" parent="HW89lJfSW6W3XiBtcc8C-3">
          <mxGeometry x="1061" y="216.25" width="40" height="20" as="geometry" />
        </mxCell>
        <mxCell id="H0gLCjWkoF_0PNR6tfpx-67" value="&lt;b&gt;Não&lt;/b&gt;" style="text;html=1;strokeColor=none;fillColor=none;align=center;verticalAlign=middle;whiteSpace=wrap;rounded=0;" vertex="1" parent="HW89lJfSW6W3XiBtcc8C-3">
          <mxGeometry x="480" y="297.5" width="40" height="20" as="geometry" />
        </mxCell>
        <mxCell id="H0gLCjWkoF_0PNR6tfpx-66" value="&lt;b&gt;Sim&lt;/b&gt;" style="text;html=1;strokeColor=none;fillColor=none;align=center;verticalAlign=middle;whiteSpace=wrap;rounded=0;" vertex="1" parent="HW89lJfSW6W3XiBtcc8C-3">
          <mxGeometry x="520" y="237.5" width="40" height="20" as="geometry" />
        </mxCell>
        <mxCell id="H0gLCjWkoF_0PNR6tfpx-81" value="Resolver Problema" style="shape=process;whiteSpace=wrap;html=1;backgroundOutline=1;" vertex="1" parent="HW89lJfSW6W3XiBtcc8C-3">
          <mxGeometry x="970" y="40" width="120" height="60" as="geometry" />
        </mxCell>
        <mxCell id="H0gLCjWkoF_0PNR6tfpx-93" style="edgeStyle=orthogonalEdgeStyle;rounded=0;orthogonalLoop=1;jettySize=auto;html=1;entryX=0.5;entryY=0;entryDx=0;entryDy=0;" edge="1" parent="HW89lJfSW6W3XiBtcc8C-3" source="H0gLCjWkoF_0PNR6tfpx-86" target="H0gLCjWkoF_0PNR6tfpx-92">
          <mxGeometry relative="1" as="geometry" />
        </mxCell>
        <mxCell id="H0gLCjWkoF_0PNR6tfpx-86" value="Categorizar o Problema&lt;br&gt;(Incidente)" style="whiteSpace=wrap;html=1;" vertex="1" parent="HW89lJfSW6W3XiBtcc8C-3">
          <mxGeometry x="400" y="370" width="120" height="60" as="geometry" />
        </mxCell>
        <mxCell id="H0gLCjWkoF_0PNR6tfpx-89" value="&lt;b&gt;Não&lt;/b&gt;" style="text;html=1;strokeColor=none;fillColor=none;align=center;verticalAlign=middle;whiteSpace=wrap;rounded=0;" vertex="1" parent="HW89lJfSW6W3XiBtcc8C-3">
          <mxGeometry x="1050" y="302.5" width="40" height="20" as="geometry" />
        </mxCell>
        <mxCell id="H0gLCjWkoF_0PNR6tfpx-96" style="edgeStyle=orthogonalEdgeStyle;rounded=0;orthogonalLoop=1;jettySize=auto;html=1;entryX=1;entryY=0.5;entryDx=0;entryDy=0;" edge="1" parent="HW89lJfSW6W3XiBtcc8C-3" source="H0gLCjWkoF_0PNR6tfpx-92" target="H0gLCjWkoF_0PNR6tfpx-94">
          <mxGeometry relative="1" as="geometry" />
        </mxCell>
        <mxCell id="H0gLCjWkoF_0PNR6tfpx-92" value="Definir nivel de Prioridade do Problema" style="whiteSpace=wrap;html=1;" vertex="1" parent="HW89lJfSW6W3XiBtcc8C-3">
          <mxGeometry x="400" y="500" width="120" height="60" as="geometry" />
        </mxCell>
        <mxCell id="H0gLCjWkoF_0PNR6tfpx-94" value="Escalanor o Problema" style="whiteSpace=wrap;html=1;" vertex="1" parent="HW89lJfSW6W3XiBtcc8C-3">
          <mxGeometry x="72.5" y="500" width="120" height="60" as="geometry" />
        </mxCell>
        <mxCell id="H0gLCjWkoF_0PNR6tfpx-90" value="Definir nivel de Prioridade do Problema" style="whiteSpace=wrap;html=1;" vertex="1" parent="HW89lJfSW6W3XiBtcc8C-3">
          <mxGeometry x="72.5" y="297.5" width="120" height="60" as="geometry" />
        </mxCell>
        <mxCell id="H0gLCjWkoF_0PNR6tfpx-91" value="" style="edgeStyle=orthogonalEdgeStyle;rounded=0;orthogonalLoop=1;jettySize=auto;html=1;" edge="1" parent="HW89lJfSW6W3XiBtcc8C-3" source="H0gLCjWkoF_0PNR6tfpx-42" target="H0gLCjWkoF_0PNR6tfpx-90">
          <mxGeometry relative="1" as="geometry" />
        </mxCell>
        <mxCell id="H0gLCjWkoF_0PNR6tfpx-95" style="edgeStyle=orthogonalEdgeStyle;rounded=0;orthogonalLoop=1;jettySize=auto;html=1;entryX=0.5;entryY=0;entryDx=0;entryDy=0;" edge="1" parent="HW89lJfSW6W3XiBtcc8C-3" source="H0gLCjWkoF_0PNR6tfpx-90" target="H0gLCjWkoF_0PNR6tfpx-94">
          <mxGeometry relative="1" as="geometry" />
        </mxCell>
        <mxCell id="HW89lJfSW6W3XiBtcc8C-4" value="Suporte Nivel 2" style="swimlane;html=1;startSize=20;horizontal=0;" parent="HW89lJfSW6W3XiBtcc8C-1" vertex="1">
          <mxGeometry y="1100" width="1460" height="650" as="geometry">
            <mxRectangle y="1100" width="1460" height="20" as="alternateBounds" />
          </mxGeometry>
        </mxCell>
        <mxCell id="H0gLCjWkoF_0PNR6tfpx-109" style="edgeStyle=orthogonalEdgeStyle;rounded=0;orthogonalLoop=1;jettySize=auto;html=1;entryX=0.5;entryY=0;entryDx=0;entryDy=0;" edge="1" parent="HW89lJfSW6W3XiBtcc8C-4" source="H0gLCjWkoF_0PNR6tfpx-98" target="H0gLCjWkoF_0PNR6tfpx-108">
          <mxGeometry relative="1" as="geometry" />
        </mxCell>
        <mxCell id="H0gLCjWkoF_0PNR6tfpx-98" value="Averiguar Fichas Descritivas dos Problemas" style="whiteSpace=wrap;html=1;" vertex="1" parent="HW89lJfSW6W3XiBtcc8C-4">
          <mxGeometry x="72.5" y="30" width="120" height="60" as="geometry" />
        </mxCell>
        <mxCell id="H0gLCjWkoF_0PNR6tfpx-111" style="edgeStyle=orthogonalEdgeStyle;rounded=0;orthogonalLoop=1;jettySize=auto;html=1;" edge="1" parent="HW89lJfSW6W3XiBtcc8C-4" source="H0gLCjWkoF_0PNR6tfpx-108" target="H0gLCjWkoF_0PNR6tfpx-110">
          <mxGeometry relative="1" as="geometry" />
        </mxCell>
        <mxCell id="H0gLCjWkoF_0PNR6tfpx-108" value="É um Problema &lt;br&gt;com o Usuário?" style="rhombus;whiteSpace=wrap;html=1;" vertex="1" parent="HW89lJfSW6W3XiBtcc8C-4">
          <mxGeometry x="67.5" y="140" width="130" height="70" as="geometry" />
        </mxCell>
        <mxCell id="H0gLCjWkoF_0PNR6tfpx-164" style="edgeStyle=orthogonalEdgeStyle;rounded=0;orthogonalLoop=1;jettySize=auto;html=1;entryX=0;entryY=0.5;entryDx=0;entryDy=0;" edge="1" parent="HW89lJfSW6W3XiBtcc8C-4" source="H0gLCjWkoF_0PNR6tfpx-110" target="H0gLCjWkoF_0PNR6tfpx-159">
          <mxGeometry relative="1" as="geometry">
            <Array as="points">
              <mxPoint x="133" y="560" />
            </Array>
          </mxGeometry>
        </mxCell>
        <mxCell id="H0gLCjWkoF_0PNR6tfpx-165" style="edgeStyle=orthogonalEdgeStyle;rounded=0;orthogonalLoop=1;jettySize=auto;html=1;entryX=0;entryY=0.5;entryDx=0;entryDy=0;" edge="1" parent="HW89lJfSW6W3XiBtcc8C-4" source="H0gLCjWkoF_0PNR6tfpx-110" target="H0gLCjWkoF_0PNR6tfpx-152">
          <mxGeometry relative="1" as="geometry" />
        </mxCell>
        <mxCell id="H0gLCjWkoF_0PNR6tfpx-110" value="É um Problema &lt;br&gt;com o Sistema?" style="rhombus;whiteSpace=wrap;html=1;" vertex="1" parent="HW89lJfSW6W3XiBtcc8C-4">
          <mxGeometry x="67.5" y="385" width="130" height="70" as="geometry" />
        </mxCell>
        <mxCell id="H0gLCjWkoF_0PNR6tfpx-112" value="&lt;b&gt;Não&lt;/b&gt;" style="text;html=1;strokeColor=none;fillColor=none;align=center;verticalAlign=middle;whiteSpace=wrap;rounded=0;" vertex="1" parent="HW89lJfSW6W3XiBtcc8C-4">
          <mxGeometry x="140" y="210" width="40" height="20" as="geometry" />
        </mxCell>
        <mxCell id="H0gLCjWkoF_0PNR6tfpx-115" value="&lt;b&gt;Sim&lt;/b&gt;" style="text;html=1;strokeColor=none;fillColor=none;align=center;verticalAlign=middle;whiteSpace=wrap;rounded=0;" vertex="1" parent="HW89lJfSW6W3XiBtcc8C-4">
          <mxGeometry x="192.5" y="150" width="40" height="20" as="geometry" />
        </mxCell>
        <mxCell id="H0gLCjWkoF_0PNR6tfpx-147" style="edgeStyle=orthogonalEdgeStyle;rounded=0;orthogonalLoop=1;jettySize=auto;html=1;" edge="1" parent="HW89lJfSW6W3XiBtcc8C-4" source="H0gLCjWkoF_0PNR6tfpx-123" target="H0gLCjWkoF_0PNR6tfpx-146">
          <mxGeometry relative="1" as="geometry" />
        </mxCell>
        <mxCell id="H0gLCjWkoF_0PNR6tfpx-123" value="Problema de Hardware?" style="rhombus;whiteSpace=wrap;html=1;" vertex="1" parent="HW89lJfSW6W3XiBtcc8C-4">
          <mxGeometry x="580" y="140" width="130" height="70" as="geometry" />
        </mxCell>
        <mxCell id="H0gLCjWkoF_0PNR6tfpx-137" value="&lt;b&gt;Sim&lt;/b&gt;" style="text;html=1;strokeColor=none;fillColor=none;align=center;verticalAlign=middle;whiteSpace=wrap;rounded=0;" vertex="1" parent="HW89lJfSW6W3XiBtcc8C-4">
          <mxGeometry x="695" y="145" width="40" height="20" as="geometry" />
        </mxCell>
        <mxCell id="H0gLCjWkoF_0PNR6tfpx-138" style="edgeStyle=orthogonalEdgeStyle;rounded=0;orthogonalLoop=1;jettySize=auto;html=1;entryX=0;entryY=0.5;entryDx=0;entryDy=0;" edge="1" parent="HW89lJfSW6W3XiBtcc8C-4" source="H0gLCjWkoF_0PNR6tfpx-123" target="H0gLCjWkoF_0PNR6tfpx-140">
          <mxGeometry relative="1" as="geometry">
            <mxPoint x="649.9999999999998" y="175.00000000000023" as="targetPoint" />
          </mxGeometry>
        </mxCell>
        <mxCell id="H0gLCjWkoF_0PNR6tfpx-179" style="edgeStyle=orthogonalEdgeStyle;rounded=0;orthogonalLoop=1;jettySize=auto;html=1;entryX=0.5;entryY=1;entryDx=0;entryDy=0;" edge="1" parent="HW89lJfSW6W3XiBtcc8C-4" source="H0gLCjWkoF_0PNR6tfpx-140" target="H0gLCjWkoF_0PNR6tfpx-142">
          <mxGeometry relative="1" as="geometry" />
        </mxCell>
        <mxCell id="H0gLCjWkoF_0PNR6tfpx-140" value="&lt;span&gt;Contatar o Usuario que o Problema não pode ser resolvido pelo Suporte&lt;/span&gt;" style="shape=process;whiteSpace=wrap;html=1;backgroundOutline=1;" vertex="1" parent="HW89lJfSW6W3XiBtcc8C-4">
          <mxGeometry x="927.5" y="145" width="185" height="60" as="geometry" />
        </mxCell>
        <mxCell id="H0gLCjWkoF_0PNR6tfpx-142" value="" style="ellipse;whiteSpace=wrap;html=1;aspect=fixed;fillColor=#f8cecc;strokeColor=#b85450;" vertex="1" parent="HW89lJfSW6W3XiBtcc8C-4">
          <mxGeometry x="1000" y="49" width="40" height="40" as="geometry" />
        </mxCell>
        <mxCell id="H0gLCjWkoF_0PNR6tfpx-153" style="edgeStyle=orthogonalEdgeStyle;rounded=0;orthogonalLoop=1;jettySize=auto;html=1;" edge="1" parent="HW89lJfSW6W3XiBtcc8C-4" source="H0gLCjWkoF_0PNR6tfpx-146" target="H0gLCjWkoF_0PNR6tfpx-152">
          <mxGeometry relative="1" as="geometry" />
        </mxCell>
        <mxCell id="H0gLCjWkoF_0PNR6tfpx-146" value="Problema de &lt;br&gt;Software?" style="rhombus;whiteSpace=wrap;html=1;" vertex="1" parent="HW89lJfSW6W3XiBtcc8C-4">
          <mxGeometry x="580" y="260" width="130" height="70" as="geometry" />
        </mxCell>
        <mxCell id="H0gLCjWkoF_0PNR6tfpx-148" value="&lt;b&gt;Não&lt;/b&gt;" style="text;html=1;strokeColor=none;fillColor=none;align=center;verticalAlign=middle;whiteSpace=wrap;rounded=0;" vertex="1" parent="HW89lJfSW6W3XiBtcc8C-4">
          <mxGeometry x="655" y="205" width="40" height="20" as="geometry" />
        </mxCell>
        <mxCell id="H0gLCjWkoF_0PNR6tfpx-149" value="&lt;b&gt;Sim&lt;/b&gt;" style="text;html=1;strokeColor=none;fillColor=none;align=center;verticalAlign=middle;whiteSpace=wrap;rounded=0;" vertex="1" parent="HW89lJfSW6W3XiBtcc8C-4">
          <mxGeometry x="655" y="320" width="40" height="20" as="geometry" />
        </mxCell>
        <mxCell id="H0gLCjWkoF_0PNR6tfpx-155" style="edgeStyle=orthogonalEdgeStyle;rounded=0;orthogonalLoop=1;jettySize=auto;html=1;entryX=0;entryY=0.5;entryDx=0;entryDy=0;" edge="1" parent="HW89lJfSW6W3XiBtcc8C-4" source="H0gLCjWkoF_0PNR6tfpx-152" target="H0gLCjWkoF_0PNR6tfpx-154">
          <mxGeometry relative="1" as="geometry" />
        </mxCell>
        <mxCell id="H0gLCjWkoF_0PNR6tfpx-152" value="Procurar Soluções" style="shape=process;whiteSpace=wrap;html=1;backgroundOutline=1;" vertex="1" parent="HW89lJfSW6W3XiBtcc8C-4">
          <mxGeometry x="585" y="390" width="120" height="60" as="geometry" />
        </mxCell>
        <mxCell id="H0gLCjWkoF_0PNR6tfpx-161" style="edgeStyle=orthogonalEdgeStyle;rounded=0;orthogonalLoop=1;jettySize=auto;html=1;entryX=1;entryY=0.5;entryDx=0;entryDy=0;" edge="1" parent="HW89lJfSW6W3XiBtcc8C-4" source="H0gLCjWkoF_0PNR6tfpx-154" target="H0gLCjWkoF_0PNR6tfpx-159">
          <mxGeometry relative="1" as="geometry">
            <Array as="points">
              <mxPoint x="865" y="560" />
            </Array>
          </mxGeometry>
        </mxCell>
        <mxCell id="H0gLCjWkoF_0PNR6tfpx-265" style="edgeStyle=orthogonalEdgeStyle;rounded=0;orthogonalLoop=1;jettySize=auto;html=1;entryX=0;entryY=0.5;entryDx=0;entryDy=0;" edge="1" parent="HW89lJfSW6W3XiBtcc8C-4" source="H0gLCjWkoF_0PNR6tfpx-154" target="H0gLCjWkoF_0PNR6tfpx-264">
          <mxGeometry relative="1" as="geometry" />
        </mxCell>
        <mxCell id="H0gLCjWkoF_0PNR6tfpx-154" value="Conseguiu Resolver?" style="rhombus;whiteSpace=wrap;html=1;" vertex="1" parent="HW89lJfSW6W3XiBtcc8C-4">
          <mxGeometry x="800" y="382.5" width="130" height="75" as="geometry" />
        </mxCell>
        <mxCell id="H0gLCjWkoF_0PNR6tfpx-156" value="&lt;b&gt;Não&lt;/b&gt;" style="text;html=1;strokeColor=none;fillColor=none;align=center;verticalAlign=middle;whiteSpace=wrap;rounded=0;" vertex="1" parent="HW89lJfSW6W3XiBtcc8C-4">
          <mxGeometry x="880" y="457.5" width="40" height="20" as="geometry" />
        </mxCell>
        <mxCell id="H0gLCjWkoF_0PNR6tfpx-157" value="&lt;b&gt;Sim&lt;/b&gt;" style="text;html=1;strokeColor=none;fillColor=none;align=center;verticalAlign=middle;whiteSpace=wrap;rounded=0;" vertex="1" parent="HW89lJfSW6W3XiBtcc8C-4">
          <mxGeometry x="930" y="385" width="40" height="20" as="geometry" />
        </mxCell>
        <mxCell id="H0gLCjWkoF_0PNR6tfpx-159" value="Escalanor o Problema" style="whiteSpace=wrap;html=1;" vertex="1" parent="HW89lJfSW6W3XiBtcc8C-4">
          <mxGeometry x="320" y="530" width="120" height="60" as="geometry" />
        </mxCell>
        <mxCell id="H0gLCjWkoF_0PNR6tfpx-163" value="&lt;b&gt;Sim&lt;/b&gt;" style="text;html=1;strokeColor=none;fillColor=none;align=center;verticalAlign=middle;whiteSpace=wrap;rounded=0;" vertex="1" parent="HW89lJfSW6W3XiBtcc8C-4">
          <mxGeometry x="140" y="455" width="40" height="20" as="geometry" />
        </mxCell>
        <mxCell id="H0gLCjWkoF_0PNR6tfpx-166" value="&lt;b&gt;Não&lt;/b&gt;" style="text;html=1;strokeColor=none;fillColor=none;align=center;verticalAlign=middle;whiteSpace=wrap;rounded=0;" vertex="1" parent="HW89lJfSW6W3XiBtcc8C-4">
          <mxGeometry x="192.5" y="390" width="40" height="20" as="geometry" />
        </mxCell>
        <mxCell id="H0gLCjWkoF_0PNR6tfpx-113" value="Entrar em Contato&lt;br&gt;com o Usuario" style="whiteSpace=wrap;html=1;" vertex="1" parent="HW89lJfSW6W3XiBtcc8C-4">
          <mxGeometry x="340" y="145" width="120" height="60" as="geometry" />
        </mxCell>
        <mxCell id="H0gLCjWkoF_0PNR6tfpx-114" value="" style="edgeStyle=orthogonalEdgeStyle;rounded=0;orthogonalLoop=1;jettySize=auto;html=1;" edge="1" parent="HW89lJfSW6W3XiBtcc8C-4" source="H0gLCjWkoF_0PNR6tfpx-108" target="H0gLCjWkoF_0PNR6tfpx-113">
          <mxGeometry relative="1" as="geometry" />
        </mxCell>
        <mxCell id="H0gLCjWkoF_0PNR6tfpx-124" style="edgeStyle=orthogonalEdgeStyle;rounded=0;orthogonalLoop=1;jettySize=auto;html=1;entryX=0;entryY=0.5;entryDx=0;entryDy=0;" edge="1" parent="HW89lJfSW6W3XiBtcc8C-4" source="H0gLCjWkoF_0PNR6tfpx-113" target="H0gLCjWkoF_0PNR6tfpx-123">
          <mxGeometry relative="1" as="geometry" />
        </mxCell>
        <mxCell id="H0gLCjWkoF_0PNR6tfpx-266" style="edgeStyle=orthogonalEdgeStyle;rounded=0;orthogonalLoop=1;jettySize=auto;html=1;entryX=1;entryY=0.5;entryDx=0;entryDy=0;" edge="1" parent="HW89lJfSW6W3XiBtcc8C-4" source="H0gLCjWkoF_0PNR6tfpx-264" target="H0gLCjWkoF_0PNR6tfpx-142">
          <mxGeometry relative="1" as="geometry">
            <Array as="points">
              <mxPoint x="1260" y="69" />
            </Array>
          </mxGeometry>
        </mxCell>
        <mxCell id="H0gLCjWkoF_0PNR6tfpx-264" value="&lt;span&gt;Contatar o Usuario que o Problema foi Resolvido&lt;/span&gt;" style="shape=process;whiteSpace=wrap;html=1;backgroundOutline=1;" vertex="1" parent="HW89lJfSW6W3XiBtcc8C-4">
          <mxGeometry x="1160" y="390" width="185" height="60" as="geometry" />
        </mxCell>
        <mxCell id="H0gLCjWkoF_0PNR6tfpx-182" style="edgeStyle=orthogonalEdgeStyle;rounded=0;orthogonalLoop=1;jettySize=auto;html=1;entryX=0.5;entryY=1;entryDx=0;entryDy=0;" edge="1" parent="HW89lJfSW6W3XiBtcc8C-1" source="H0gLCjWkoF_0PNR6tfpx-81" target="H0gLCjWkoF_0PNR6tfpx-99">
          <mxGeometry relative="1" as="geometry" />
        </mxCell>
        <mxCell id="H0gLCjWkoF_0PNR6tfpx-1" value="Suporte Nivel 3" style="swimlane;html=1;startSize=20;horizontal=0;" vertex="1" parent="1">
          <mxGeometry x="140" y="1770" width="1460" height="790" as="geometry">
            <mxRectangle x="140" y="1770" width="30" height="110" as="alternateBounds" />
          </mxGeometry>
        </mxCell>
        <mxCell id="H0gLCjWkoF_0PNR6tfpx-178" style="edgeStyle=orthogonalEdgeStyle;rounded=0;orthogonalLoop=1;jettySize=auto;html=1;entryX=0.5;entryY=0;entryDx=0;entryDy=0;" edge="1" parent="H0gLCjWkoF_0PNR6tfpx-1" source="H0gLCjWkoF_0PNR6tfpx-168" target="H0gLCjWkoF_0PNR6tfpx-204">
          <mxGeometry relative="1" as="geometry">
            <mxPoint x="379.9999999999998" y="410" as="targetPoint" />
          </mxGeometry>
        </mxCell>
        <mxCell id="H0gLCjWkoF_0PNR6tfpx-190" style="edgeStyle=orthogonalEdgeStyle;rounded=0;orthogonalLoop=1;jettySize=auto;html=1;entryX=0;entryY=0.5;entryDx=0;entryDy=0;" edge="1" parent="H0gLCjWkoF_0PNR6tfpx-1" source="H0gLCjWkoF_0PNR6tfpx-168" target="H0gLCjWkoF_0PNR6tfpx-188">
          <mxGeometry relative="1" as="geometry" />
        </mxCell>
        <mxCell id="H0gLCjWkoF_0PNR6tfpx-168" value="É um Problema no Servidor?" style="rhombus;whiteSpace=wrap;html=1;" vertex="1" parent="H0gLCjWkoF_0PNR6tfpx-1">
          <mxGeometry x="313.75" y="410" width="132.5" height="70" as="geometry" />
        </mxCell>
        <mxCell id="H0gLCjWkoF_0PNR6tfpx-173" style="edgeStyle=orthogonalEdgeStyle;rounded=0;orthogonalLoop=1;jettySize=auto;html=1;entryX=0.5;entryY=0;entryDx=0;entryDy=0;" edge="1" parent="H0gLCjWkoF_0PNR6tfpx-1" source="H0gLCjWkoF_0PNR6tfpx-169" target="H0gLCjWkoF_0PNR6tfpx-168">
          <mxGeometry relative="1" as="geometry" />
        </mxCell>
        <mxCell id="H0gLCjWkoF_0PNR6tfpx-189" style="edgeStyle=orthogonalEdgeStyle;rounded=0;orthogonalLoop=1;jettySize=auto;html=1;entryX=0;entryY=0.5;entryDx=0;entryDy=0;" edge="1" parent="H0gLCjWkoF_0PNR6tfpx-1" source="H0gLCjWkoF_0PNR6tfpx-169" target="H0gLCjWkoF_0PNR6tfpx-187">
          <mxGeometry relative="1" as="geometry" />
        </mxCell>
        <mxCell id="H0gLCjWkoF_0PNR6tfpx-169" value="É um Problema na Aplicação?" style="rhombus;whiteSpace=wrap;html=1;" vertex="1" parent="H0gLCjWkoF_0PNR6tfpx-1">
          <mxGeometry x="313.75" y="222.5" width="132.5" height="70" as="geometry" />
        </mxCell>
        <mxCell id="H0gLCjWkoF_0PNR6tfpx-172" style="edgeStyle=orthogonalEdgeStyle;rounded=0;orthogonalLoop=1;jettySize=auto;html=1;" edge="1" parent="H0gLCjWkoF_0PNR6tfpx-1" source="H0gLCjWkoF_0PNR6tfpx-170" target="H0gLCjWkoF_0PNR6tfpx-169">
          <mxGeometry relative="1" as="geometry" />
        </mxCell>
        <mxCell id="H0gLCjWkoF_0PNR6tfpx-170" value="É um Problema na Visualização?" style="rhombus;whiteSpace=wrap;html=1;" vertex="1" parent="H0gLCjWkoF_0PNR6tfpx-1">
          <mxGeometry x="313.75" y="30" width="132.5" height="70" as="geometry" />
        </mxCell>
        <mxCell id="H0gLCjWkoF_0PNR6tfpx-176" value="&lt;b&gt;Não&lt;/b&gt;" style="text;html=1;strokeColor=none;fillColor=none;align=center;verticalAlign=middle;whiteSpace=wrap;rounded=0;" vertex="1" parent="H0gLCjWkoF_0PNR6tfpx-1">
          <mxGeometry x="390" y="480" width="40" height="20" as="geometry" />
        </mxCell>
        <mxCell id="H0gLCjWkoF_0PNR6tfpx-184" style="edgeStyle=orthogonalEdgeStyle;rounded=0;orthogonalLoop=1;jettySize=auto;html=1;entryX=0;entryY=0.5;entryDx=0;entryDy=0;" edge="1" parent="H0gLCjWkoF_0PNR6tfpx-1" source="H0gLCjWkoF_0PNR6tfpx-170" target="H0gLCjWkoF_0PNR6tfpx-186">
          <mxGeometry relative="1" as="geometry">
            <mxPoint x="600" y="65" as="targetPoint" />
          </mxGeometry>
        </mxCell>
        <mxCell id="H0gLCjWkoF_0PNR6tfpx-193" style="edgeStyle=orthogonalEdgeStyle;rounded=0;orthogonalLoop=1;jettySize=auto;html=1;entryX=0;entryY=0.5;entryDx=0;entryDy=0;" edge="1" parent="H0gLCjWkoF_0PNR6tfpx-1" source="H0gLCjWkoF_0PNR6tfpx-186" target="H0gLCjWkoF_0PNR6tfpx-191">
          <mxGeometry relative="1" as="geometry" />
        </mxCell>
        <mxCell id="H0gLCjWkoF_0PNR6tfpx-186" value="Procurar Soluções" style="shape=process;whiteSpace=wrap;html=1;backgroundOutline=1;" vertex="1" parent="H0gLCjWkoF_0PNR6tfpx-1">
          <mxGeometry x="610" y="35" width="120" height="60" as="geometry" />
        </mxCell>
        <mxCell id="H0gLCjWkoF_0PNR6tfpx-195" style="edgeStyle=orthogonalEdgeStyle;rounded=0;orthogonalLoop=1;jettySize=auto;html=1;entryX=0;entryY=0.5;entryDx=0;entryDy=0;" edge="1" parent="H0gLCjWkoF_0PNR6tfpx-1" source="H0gLCjWkoF_0PNR6tfpx-187" target="H0gLCjWkoF_0PNR6tfpx-194">
          <mxGeometry relative="1" as="geometry" />
        </mxCell>
        <mxCell id="H0gLCjWkoF_0PNR6tfpx-187" value="Procurar Soluções" style="shape=process;whiteSpace=wrap;html=1;backgroundOutline=1;" vertex="1" parent="H0gLCjWkoF_0PNR6tfpx-1">
          <mxGeometry x="610" y="227.5" width="120" height="60" as="geometry" />
        </mxCell>
        <mxCell id="H0gLCjWkoF_0PNR6tfpx-197" style="edgeStyle=orthogonalEdgeStyle;rounded=0;orthogonalLoop=1;jettySize=auto;html=1;entryX=0;entryY=0.5;entryDx=0;entryDy=0;" edge="1" parent="H0gLCjWkoF_0PNR6tfpx-1" source="H0gLCjWkoF_0PNR6tfpx-188" target="H0gLCjWkoF_0PNR6tfpx-196">
          <mxGeometry relative="1" as="geometry" />
        </mxCell>
        <mxCell id="H0gLCjWkoF_0PNR6tfpx-188" value="Procurar Soluções" style="shape=process;whiteSpace=wrap;html=1;backgroundOutline=1;" vertex="1" parent="H0gLCjWkoF_0PNR6tfpx-1">
          <mxGeometry x="610" y="415" width="120" height="60" as="geometry" />
        </mxCell>
        <mxCell id="H0gLCjWkoF_0PNR6tfpx-212" style="edgeStyle=orthogonalEdgeStyle;rounded=0;orthogonalLoop=1;jettySize=auto;html=1;entryX=0.5;entryY=0;entryDx=0;entryDy=0;" edge="1" parent="H0gLCjWkoF_0PNR6tfpx-1" source="H0gLCjWkoF_0PNR6tfpx-191" target="H0gLCjWkoF_0PNR6tfpx-211">
          <mxGeometry relative="1" as="geometry" />
        </mxCell>
        <mxCell id="H0gLCjWkoF_0PNR6tfpx-267" style="edgeStyle=orthogonalEdgeStyle;rounded=0;orthogonalLoop=1;jettySize=auto;html=1;entryX=1;entryY=0.5;entryDx=0;entryDy=0;" edge="1" parent="H0gLCjWkoF_0PNR6tfpx-1" source="H0gLCjWkoF_0PNR6tfpx-191" target="H0gLCjWkoF_0PNR6tfpx-204">
          <mxGeometry relative="1" as="geometry">
            <Array as="points">
              <mxPoint x="895" y="150" />
              <mxPoint x="1130" y="150" />
              <mxPoint x="1130" y="640" />
            </Array>
          </mxGeometry>
        </mxCell>
        <mxCell id="H0gLCjWkoF_0PNR6tfpx-191" value="Conseguiu Resolver?" style="rhombus;whiteSpace=wrap;html=1;" vertex="1" parent="H0gLCjWkoF_0PNR6tfpx-1">
          <mxGeometry x="830" y="27.5" width="130" height="75" as="geometry" />
        </mxCell>
        <mxCell id="H0gLCjWkoF_0PNR6tfpx-194" value="Conseguiu Resolver?" style="rhombus;whiteSpace=wrap;html=1;" vertex="1" parent="H0gLCjWkoF_0PNR6tfpx-1">
          <mxGeometry x="830" y="220" width="130" height="75" as="geometry" />
        </mxCell>
        <mxCell id="H0gLCjWkoF_0PNR6tfpx-196" value="Conseguiu Resolver?" style="rhombus;whiteSpace=wrap;html=1;" vertex="1" parent="H0gLCjWkoF_0PNR6tfpx-1">
          <mxGeometry x="830" y="407.5" width="130" height="75" as="geometry" />
        </mxCell>
        <mxCell id="H0gLCjWkoF_0PNR6tfpx-198" value="&lt;b&gt;Sim&lt;/b&gt;" style="text;html=1;strokeColor=none;fillColor=none;align=center;verticalAlign=middle;whiteSpace=wrap;rounded=0;" vertex="1" parent="H0gLCjWkoF_0PNR6tfpx-1">
          <mxGeometry x="940" y="35" width="40" height="20" as="geometry" />
        </mxCell>
        <mxCell id="H0gLCjWkoF_0PNR6tfpx-199" value="&lt;b&gt;Sim&lt;/b&gt;" style="text;html=1;strokeColor=none;fillColor=none;align=center;verticalAlign=middle;whiteSpace=wrap;rounded=0;" vertex="1" parent="H0gLCjWkoF_0PNR6tfpx-1">
          <mxGeometry x="940" y="222.5" width="40" height="20" as="geometry" />
        </mxCell>
        <mxCell id="H0gLCjWkoF_0PNR6tfpx-200" value="&lt;b&gt;Sim&lt;/b&gt;" style="text;html=1;strokeColor=none;fillColor=none;align=center;verticalAlign=middle;whiteSpace=wrap;rounded=0;" vertex="1" parent="H0gLCjWkoF_0PNR6tfpx-1">
          <mxGeometry x="940" y="415" width="40" height="20" as="geometry" />
        </mxCell>
        <mxCell id="H0gLCjWkoF_0PNR6tfpx-207" style="edgeStyle=orthogonalEdgeStyle;rounded=0;orthogonalLoop=1;jettySize=auto;html=1;" edge="1" parent="H0gLCjWkoF_0PNR6tfpx-1" source="H0gLCjWkoF_0PNR6tfpx-204" target="H0gLCjWkoF_0PNR6tfpx-206">
          <mxGeometry relative="1" as="geometry" />
        </mxCell>
        <mxCell id="H0gLCjWkoF_0PNR6tfpx-204" value="&lt;span&gt;Contatar o Usuario que o Problema não pode ser resolvido pelo Suporte&lt;/span&gt;" style="shape=process;whiteSpace=wrap;html=1;backgroundOutline=1;" vertex="1" parent="H0gLCjWkoF_0PNR6tfpx-1">
          <mxGeometry x="287.5" y="610" width="185" height="60" as="geometry" />
        </mxCell>
        <mxCell id="H0gLCjWkoF_0PNR6tfpx-206" value="" style="ellipse;whiteSpace=wrap;html=1;aspect=fixed;fillColor=#f8cecc;strokeColor=#b85450;" vertex="1" parent="H0gLCjWkoF_0PNR6tfpx-1">
          <mxGeometry x="130" y="620" width="40" height="40" as="geometry" />
        </mxCell>
        <mxCell id="H0gLCjWkoF_0PNR6tfpx-262" style="edgeStyle=orthogonalEdgeStyle;rounded=0;orthogonalLoop=1;jettySize=auto;html=1;entryX=0.5;entryY=1;entryDx=0;entryDy=0;" edge="1" parent="H0gLCjWkoF_0PNR6tfpx-1" source="H0gLCjWkoF_0PNR6tfpx-211" target="H0gLCjWkoF_0PNR6tfpx-206">
          <mxGeometry relative="1" as="geometry" />
        </mxCell>
        <mxCell id="H0gLCjWkoF_0PNR6tfpx-211" value="&lt;span&gt;Contatar o Usuario que o Problema foi Resolvido&lt;/span&gt;" style="shape=process;whiteSpace=wrap;html=1;backgroundOutline=1;" vertex="1" parent="H0gLCjWkoF_0PNR6tfpx-1">
          <mxGeometry x="1170" y="690" width="185" height="60" as="geometry" />
        </mxCell>
        <mxCell id="H0gLCjWkoF_0PNR6tfpx-175" value="&lt;b&gt;Não&lt;/b&gt;" style="text;html=1;strokeColor=none;fillColor=none;align=center;verticalAlign=middle;whiteSpace=wrap;rounded=0;" vertex="1" parent="H0gLCjWkoF_0PNR6tfpx-1">
          <mxGeometry x="390" y="292.5" width="40" height="20" as="geometry" />
        </mxCell>
        <mxCell id="H0gLCjWkoF_0PNR6tfpx-220" value="&lt;b&gt;Não&lt;/b&gt;" style="text;html=1;strokeColor=none;fillColor=none;align=center;verticalAlign=middle;whiteSpace=wrap;rounded=0;" vertex="1" parent="H0gLCjWkoF_0PNR6tfpx-1">
          <mxGeometry x="900" y="490" width="40" height="20" as="geometry" />
        </mxCell>
        <mxCell id="H0gLCjWkoF_0PNR6tfpx-223" value="&lt;b&gt;Sim&lt;/b&gt;" style="text;html=1;strokeColor=none;fillColor=none;align=center;verticalAlign=middle;whiteSpace=wrap;rounded=0;" vertex="1" parent="H0gLCjWkoF_0PNR6tfpx-1">
          <mxGeometry x="440" y="227.5" width="40" height="20" as="geometry" />
        </mxCell>
        <mxCell id="H0gLCjWkoF_0PNR6tfpx-260" value="&lt;b&gt;Sim&lt;/b&gt;" style="text;html=1;strokeColor=none;fillColor=none;align=center;verticalAlign=middle;whiteSpace=wrap;rounded=0;" vertex="1" parent="H0gLCjWkoF_0PNR6tfpx-1">
          <mxGeometry x="440" y="407.5" width="40" height="20" as="geometry" />
        </mxCell>
        <mxCell id="H0gLCjWkoF_0PNR6tfpx-261" value="&lt;b&gt;Sim&lt;/b&gt;" style="text;html=1;strokeColor=none;fillColor=none;align=center;verticalAlign=middle;whiteSpace=wrap;rounded=0;" vertex="1" parent="H0gLCjWkoF_0PNR6tfpx-1">
          <mxGeometry x="440" y="35" width="40" height="20" as="geometry" />
        </mxCell>
        <mxCell id="H0gLCjWkoF_0PNR6tfpx-174" value="&lt;b&gt;Não&lt;/b&gt;" style="text;html=1;strokeColor=none;fillColor=none;align=center;verticalAlign=middle;whiteSpace=wrap;rounded=0;" vertex="1" parent="H0gLCjWkoF_0PNR6tfpx-1">
          <mxGeometry x="390" y="95" width="40" height="20" as="geometry" />
        </mxCell>
        <mxCell id="H0gLCjWkoF_0PNR6tfpx-270" value="&lt;b&gt;Não&lt;/b&gt;" style="text;html=1;strokeColor=none;fillColor=none;align=center;verticalAlign=middle;whiteSpace=wrap;rounded=0;" vertex="1" parent="H0gLCjWkoF_0PNR6tfpx-1">
          <mxGeometry x="900" y="287.5" width="40" height="20" as="geometry" />
        </mxCell>
        <mxCell id="H0gLCjWkoF_0PNR6tfpx-271" value="&lt;b&gt;Não&lt;/b&gt;" style="text;html=1;strokeColor=none;fillColor=none;align=center;verticalAlign=middle;whiteSpace=wrap;rounded=0;" vertex="1" parent="H0gLCjWkoF_0PNR6tfpx-1">
          <mxGeometry x="900" y="102.5" width="40" height="20" as="geometry" />
        </mxCell>
        <mxCell id="H0gLCjWkoF_0PNR6tfpx-171" style="edgeStyle=orthogonalEdgeStyle;rounded=0;orthogonalLoop=1;jettySize=auto;html=1;entryX=0.5;entryY=0;entryDx=0;entryDy=0;" edge="1" parent="1" source="H0gLCjWkoF_0PNR6tfpx-159" target="H0gLCjWkoF_0PNR6tfpx-170">
          <mxGeometry relative="1" as="geometry" />
        </mxCell>
        <mxCell id="H0gLCjWkoF_0PNR6tfpx-214" style="edgeStyle=orthogonalEdgeStyle;rounded=0;orthogonalLoop=1;jettySize=auto;html=1;" edge="1" parent="1" source="H0gLCjWkoF_0PNR6tfpx-194">
          <mxGeometry relative="1" as="geometry">
            <mxPoint x="1400" y="2028" as="targetPoint" />
          </mxGeometry>
        </mxCell>
        <mxCell id="H0gLCjWkoF_0PNR6tfpx-215" style="edgeStyle=orthogonalEdgeStyle;rounded=0;orthogonalLoop=1;jettySize=auto;html=1;" edge="1" parent="1" source="H0gLCjWkoF_0PNR6tfpx-196">
          <mxGeometry relative="1" as="geometry">
            <mxPoint x="1400" y="2215" as="targetPoint" />
          </mxGeometry>
        </mxCell>
        <mxCell id="H0gLCjWkoF_0PNR6tfpx-268" style="edgeStyle=orthogonalEdgeStyle;rounded=0;orthogonalLoop=1;jettySize=auto;html=1;" edge="1" parent="1" source="H0gLCjWkoF_0PNR6tfpx-194">
          <mxGeometry relative="1" as="geometry">
            <mxPoint x="1270" y="2120" as="targetPoint" />
            <Array as="points">
              <mxPoint x="1035" y="2120" />
            </Array>
          </mxGeometry>
        </mxCell>
        <mxCell id="H0gLCjWkoF_0PNR6tfpx-269" style="edgeStyle=orthogonalEdgeStyle;rounded=0;orthogonalLoop=1;jettySize=auto;html=1;" edge="1" parent="1" source="H0gLCjWkoF_0PNR6tfpx-196">
          <mxGeometry relative="1" as="geometry">
            <mxPoint x="1270" y="2320" as="targetPoint" />
            <Array as="points">
              <mxPoint x="1035" y="2320" />
            </Array>
          </mxGeometry>
        </mxCell>
      </root>
    </mxGraphModel>
  </diagram>
</mxfile>
